<svg xmlns="http://www.w3.org/2000/svg" xmlns:xlink="http://www.w3.org/1999/xlink" width="75" zoomAndPan="magnify" viewBox="0 0 56.25 56.249997" height="75" preserveAspectRatio="xMidYMid meet" version="1.0"><defs><clipPath id="2a937d19ec"><path d="M 0 0 L 55.511719 0 L 55.511719 55.511719 L 0 55.511719 Z M 0 0 " clip-rule="nonzero"/></clipPath><clipPath id="38e7ad6116"><path d="M 0 0 L 30 0 L 30 55.511719 L 0 55.511719 Z M 0 0 " clip-rule="nonzero"/></clipPath><clipPath id="ba3038a6f4"><path d="M 52 23 L 55.511719 23 L 55.511719 27 L 52 27 Z M 52 23 " clip-rule="nonzero"/></clipPath><clipPath id="ab0af30d12"><path d="M 52 28 L 55.511719 28 L 55.511719 33 L 52 33 Z M 52 28 " clip-rule="nonzero"/></clipPath><clipPath id="bfd114e8f6"><path d="M 0 0 L 30 0 L 30 55.511719 L 0 55.511719 Z M 0 0 " clip-rule="nonzero"/></clipPath></defs><g clip-path="url(#2a937d19ec)"><path fill="#ffffff" d="M 0 0 L 55.511719 0 L 55.511719 55.511719 L 0 55.511719 Z M 0 0 " fill-opacity="1" fill-rule="nonzero"/><path fill="#ffffff" d="M 0 0 L 55.511719 0 L 55.511719 55.511719 L 0 55.511719 Z M 0 0 " fill-opacity="1" fill-rule="nonzero"/></g><path fill="#ea7100" d="M 28.226562 40.832031 C 28.21875 40.832031 28.210938 40.832031 28.207031 40.832031 C 24.628906 40.890625 21.167969 39.503906 18.714844 37.03125 C 16.257812 34.550781 14.914062 31.261719 14.933594 27.773438 C 14.953125 24.28125 16.332031 21.011719 18.8125 18.558594 C 21.292969 16.109375 24.625 14.796875 28.207031 14.855469 C 28.210938 14.855469 28.21875 14.855469 28.226562 14.855469 C 28.832031 14.855469 29.332031 14.367188 29.339844 13.757812 C 29.351562 13.140625 28.859375 12.632812 28.242188 12.625 C 26.222656 12.589844 24.25 12.9375 22.382812 13.65625 C 20.441406 14.40625 18.714844 15.519531 17.246094 16.96875 C 14.339844 19.839844 12.726562 23.671875 12.703125 27.757812 C 12.679688 31.84375 14.253906 35.695312 17.128906 38.597656 C 19.949219 41.445312 23.894531 43.066406 27.992188 43.066406 C 28.074219 43.066406 28.160156 43.066406 28.246094 43.0625 C 28.859375 43.054688 29.351562 42.546875 29.34375 41.929688 C 29.332031 41.320312 28.832031 40.832031 28.226562 40.832031 Z M 28.226562 40.832031 " fill-opacity="1" fill-rule="nonzero"/><g clip-path="url(#38e7ad6116)"><path fill="#ea7100" d="M 28.195312 53.253906 C 26.589844 53.300781 25.253906 53.269531 24.289062 53.164062 L 24.285156 48.546875 C 24.285156 48.054688 23.960938 47.621094 23.488281 47.480469 L 22.347656 47.136719 C 21.070312 46.753906 19.816406 46.230469 18.621094 45.585938 L 17.570312 45.015625 C 17.140625 44.78125 16.605469 44.859375 16.253906 45.203125 L 12.894531 48.527344 C 11.792969 47.722656 10.75 46.820312 9.785156 45.847656 C 8.929688 44.980469 8.125 44.042969 7.394531 43.058594 L 10.800781 39.691406 C 11.152344 39.34375 11.234375 38.8125 11.003906 38.378906 L 10.449219 37.320312 C 9.835938 36.164062 9.335938 34.9375 8.964844 33.671875 L 8.625 32.527344 C 8.484375 32.054688 8.054688 31.730469 7.5625 31.730469 L 2.675781 31.695312 C 2.285156 29.113281 2.289062 26.511719 2.683594 23.9375 L 7.617188 23.972656 C 7.621094 23.972656 7.625 23.972656 7.628906 23.972656 C 8.117188 23.972656 8.546875 23.65625 8.691406 23.1875 L 9.046875 22.046875 C 9.226562 21.472656 9.433594 20.902344 9.664062 20.34375 C 9.921875 19.714844 10.222656 19.089844 10.550781 18.480469 L 11.117188 17.429688 C 11.351562 17 11.277344 16.464844 10.929688 16.117188 L 7.433594 12.578125 C 8.207031 11.539062 9.066406 10.554688 9.984375 9.644531 C 10.90625 8.734375 11.898438 7.886719 12.949219 7.125 L 16.445312 10.660156 C 16.789062 11.011719 17.320312 11.089844 17.757812 10.863281 L 18.816406 10.304688 C 18.933594 10.242188 19.050781 10.183594 19.160156 10.128906 C 20.210938 9.601562 21.3125 9.164062 22.433594 8.832031 L 23.574219 8.492188 C 24.046875 8.351562 24.371094 7.921875 24.375 7.429688 L 24.398438 2.496094 C 25.664062 2.320312 26.945312 2.234375 28.214844 2.246094 C 28.21875 2.246094 28.222656 2.246094 28.226562 2.246094 C 28.835938 2.246094 29.335938 1.753906 29.34375 1.140625 C 29.347656 0.527344 28.851562 0.0234375 28.238281 0.015625 C 26.652344 0 25.054688 0.125 23.488281 0.378906 C 23.351562 0.398438 23.214844 0.425781 23.085938 0.449219 C 22.558594 0.546875 22.175781 1.003906 22.171875 1.539062 L 22.144531 6.589844 L 21.796875 6.691406 C 20.550781 7.0625 19.324219 7.546875 18.152344 8.136719 C 18.023438 8.199219 17.894531 8.265625 17.769531 8.332031 L 17.449219 8.503906 L 13.871094 4.886719 C 13.492188 4.5 12.890625 4.445312 12.445312 4.75 C 12.402344 4.78125 12.363281 4.808594 12.320312 4.835938 C 12.25 4.882812 12.183594 4.929688 12.117188 4.976562 C 10.800781 5.890625 9.554688 6.925781 8.414062 8.054688 C 7.273438 9.183594 6.222656 10.417969 5.296875 11.71875 C 5.21875 11.832031 5.136719 11.945312 5.058594 12.054688 C 4.753906 12.5 4.804688 13.09375 5.183594 13.476562 L 8.761719 17.097656 L 8.589844 17.414062 C 8.222656 18.09375 7.886719 18.792969 7.601562 19.492188 C 7.34375 20.109375 7.113281 20.746094 6.914062 21.386719 L 6.804688 21.734375 L 1.753906 21.699219 C 1.75 21.699219 1.746094 21.699219 1.746094 21.699219 C 1.207031 21.699219 0.746094 22.085938 0.648438 22.613281 L 0.640625 22.644531 C 0.621094 22.761719 0.597656 22.878906 0.578125 22.996094 C 0.015625 26.179688 0.0117188 29.40625 0.558594 32.585938 C 0.582031 32.722656 0.605469 32.863281 0.636719 33.015625 C 0.738281 33.539062 1.191406 33.914062 1.722656 33.917969 L 6.71875 33.953125 L 6.820312 34.304688 C 7.234375 35.710938 7.792969 37.078125 8.472656 38.363281 L 8.640625 38.6875 L 5.148438 42.140625 C 4.765625 42.519531 4.707031 43.113281 5.007812 43.558594 C 5.082031 43.667969 5.160156 43.777344 5.238281 43.890625 C 6.125 45.144531 7.121094 46.328125 8.199219 47.417969 C 9.378906 48.609375 10.667969 49.699219 12.035156 50.65625 C 12.152344 50.742188 12.269531 50.820312 12.390625 50.902344 C 12.832031 51.199219 13.421875 51.144531 13.796875 50.769531 L 17.234375 47.371094 L 17.554688 47.546875 C 18.882812 48.265625 20.28125 48.847656 21.703125 49.273438 L 22.050781 49.378906 L 22.054688 54.125 C 22.054688 54.667969 22.445312 55.132812 22.980469 55.222656 L 23.109375 55.246094 C 23.195312 55.261719 23.28125 55.273438 23.363281 55.289062 C 24.226562 55.433594 25.386719 55.507812 26.828125 55.507812 C 27.277344 55.507812 27.753906 55.5 28.253906 55.484375 C 28.871094 55.46875 29.355469 54.953125 29.339844 54.339844 C 29.324219 53.722656 28.808594 53.238281 28.195312 53.253906 Z M 28.195312 53.253906 " fill-opacity="1" fill-rule="nonzero"/></g><path fill="#ea7100" d="M 23.414062 22.453125 C 24.742188 21.277344 26.449219 20.628906 28.222656 20.628906 C 28.222656 20.628906 28.226562 20.628906 28.226562 20.628906 C 28.84375 20.628906 29.34375 20.128906 29.34375 19.511719 C 29.34375 18.898438 28.84375 18.398438 28.226562 18.398438 C 28.226562 18.398438 28.222656 18.398438 28.222656 18.398438 C 25.90625 18.398438 23.671875 19.242188 21.9375 20.78125 C 18.015625 24.25 17.648438 30.257812 21.117188 34.179688 C 22.917969 36.210938 25.507812 37.378906 28.226562 37.382812 C 28.84375 37.382812 29.34375 36.882812 29.34375 36.265625 C 29.34375 35.648438 28.84375 35.148438 28.226562 35.148438 C 26.148438 35.148438 24.164062 34.257812 22.789062 32.699219 C 21.503906 31.246094 20.863281 29.382812 20.980469 27.445312 C 21.097656 25.507812 21.964844 23.734375 23.414062 22.453125 Z M 23.414062 22.453125 " fill-opacity="1" fill-rule="nonzero"/><path fill="#ea7100" d="M 31.585938 1.953125 L 35.089844 1.953125 L 35.089844 5.457031 L 31.585938 5.457031 Z M 31.585938 1.953125 " fill-opacity="1" fill-rule="nonzero"/><path fill="#ea7100" d="M 31.585938 12.699219 L 35.089844 12.699219 L 35.089844 16.203125 L 31.585938 16.203125 Z M 31.585938 12.699219 " fill-opacity="1" fill-rule="nonzero"/><path fill="#ea7100" d="M 31.585938 23.449219 L 35.089844 23.449219 L 35.089844 26.953125 L 31.585938 26.953125 Z M 31.585938 23.449219 " fill-opacity="1" fill-rule="nonzero"/><path fill="#ea7100" d="M 31.585938 34.199219 L 35.089844 34.199219 L 35.089844 37.703125 L 31.585938 37.703125 Z M 31.585938 34.199219 " fill-opacity="1" fill-rule="nonzero"/><path fill="#ea7100" d="M 31.585938 39.574219 L 35.089844 39.574219 L 35.089844 43.074219 L 31.585938 43.074219 Z M 31.585938 39.574219 " fill-opacity="1" fill-rule="nonzero"/><path fill="#ea7100" d="M 31.585938 50.324219 L 35.089844 50.324219 L 35.089844 53.824219 L 31.585938 53.824219 Z M 31.585938 50.324219 " fill-opacity="1" fill-rule="nonzero"/><path fill="#ea7100" d="M 38.390625 7.324219 L 41.894531 7.324219 L 41.894531 10.828125 L 38.390625 10.828125 Z M 38.390625 7.324219 " fill-opacity="1" fill-rule="nonzero"/><path fill="#ea7100" d="M 38.390625 12.699219 L 41.894531 12.699219 L 41.894531 16.203125 L 38.390625 16.203125 Z M 38.390625 12.699219 " fill-opacity="1" fill-rule="nonzero"/><path fill="#ea7100" d="M 38.390625 23.449219 L 41.894531 23.449219 L 41.894531 26.953125 L 38.390625 26.953125 Z M 38.390625 23.449219 " fill-opacity="1" fill-rule="nonzero"/><path fill="#ea7100" d="M 38.390625 28.824219 L 41.894531 28.824219 L 41.894531 32.328125 L 38.390625 32.328125 Z M 38.390625 28.824219 " fill-opacity="1" fill-rule="nonzero"/><path fill="#ea7100" d="M 38.390625 34.199219 L 41.894531 34.199219 L 41.894531 37.703125 L 38.390625 37.703125 Z M 38.390625 34.199219 " fill-opacity="1" fill-rule="nonzero"/><path fill="#ea7100" d="M 38.390625 44.949219 L 41.894531 44.949219 L 41.894531 48.449219 L 38.390625 48.449219 Z M 38.390625 44.949219 " fill-opacity="1" fill-rule="nonzero"/><path fill="#ea7100" d="M 45.195312 12.699219 L 48.699219 12.699219 L 48.699219 16.203125 L 45.195312 16.203125 Z M 45.195312 12.699219 " fill-opacity="1" fill-rule="nonzero"/><path fill="#ea7100" d="M 45.195312 23.449219 L 48.699219 23.449219 L 48.699219 26.953125 L 45.195312 26.953125 Z M 45.195312 23.449219 " fill-opacity="1" fill-rule="nonzero"/><path fill="#ea7100" d="M 45.195312 34.199219 L 48.699219 34.199219 L 48.699219 37.703125 L 45.195312 37.703125 Z M 45.195312 34.199219 " fill-opacity="1" fill-rule="nonzero"/><path fill="#ea7100" d="M 45.195312 39.574219 L 48.699219 39.574219 L 48.699219 43.074219 L 45.195312 43.074219 Z M 45.195312 39.574219 " fill-opacity="1" fill-rule="nonzero"/><g clip-path="url(#ba3038a6f4)"><path fill="#ea7100" d="M 52 23.449219 L 55.503906 23.449219 L 55.503906 26.953125 L 52 26.953125 Z M 52 23.449219 " fill-opacity="1" fill-rule="nonzero"/></g><g clip-path="url(#ab0af30d12)"><path fill="#ea7100" d="M 52 28.824219 L 55.503906 28.824219 L 55.503906 32.328125 L 52 32.328125 Z M 52 28.824219 " fill-opacity="1" fill-rule="nonzero"/></g><path fill="#000000" d="M 28.226562 40.832031 C 28.21875 40.832031 28.210938 40.832031 28.207031 40.832031 C 24.628906 40.890625 21.167969 39.503906 18.714844 37.03125 C 16.257812 34.550781 14.914062 31.261719 14.933594 27.773438 C 14.953125 24.28125 16.332031 21.011719 18.8125 18.558594 C 21.292969 16.109375 24.625 14.796875 28.207031 14.855469 C 28.210938 14.855469 28.21875 14.855469 28.226562 14.855469 C 28.832031 14.855469 29.332031 14.367188 29.339844 13.757812 C 29.351562 13.140625 28.859375 12.632812 28.242188 12.625 C 26.222656 12.589844 24.25 12.9375 22.382812 13.65625 C 20.441406 14.40625 18.714844 15.519531 17.246094 16.96875 C 14.339844 19.839844 12.726562 23.671875 12.703125 27.757812 C 12.679688 31.84375 14.253906 35.695312 17.128906 38.597656 C 19.949219 41.445312 23.894531 43.066406 27.992188 43.066406 C 28.074219 43.066406 28.160156 43.066406 28.246094 43.0625 C 28.859375 43.054688 29.351562 42.546875 29.34375 41.929688 C 29.332031 41.320312 28.832031 40.832031 28.226562 40.832031 Z M 28.226562 40.832031 " fill-opacity="1" fill-rule="nonzero"/><g clip-path="url(#bfd114e8f6)"><path fill="#000000" d="M 28.195312 53.253906 C 26.589844 53.300781 25.253906 53.269531 24.289062 53.164062 L 24.285156 48.546875 C 24.285156 48.054688 23.960938 47.621094 23.488281 47.480469 L 22.347656 47.136719 C 21.070312 46.753906 19.816406 46.230469 18.621094 45.585938 L 17.570312 45.015625 C 17.140625 44.78125 16.605469 44.859375 16.253906 45.203125 L 12.894531 48.527344 C 11.792969 47.722656 10.75 46.820312 9.785156 45.847656 C 8.929688 44.980469 8.125 44.042969 7.394531 43.058594 L 10.800781 39.691406 C 11.152344 39.34375 11.234375 38.8125 11.003906 38.378906 L 10.449219 37.320312 C 9.835938 36.164062 9.335938 34.9375 8.964844 33.671875 L 8.625 32.527344 C 8.484375 32.054688 8.054688 31.730469 7.5625 31.730469 L 2.675781 31.695312 C 2.285156 29.113281 2.289062 26.511719 2.683594 23.9375 L 7.617188 23.972656 C 7.621094 23.972656 7.625 23.972656 7.628906 23.972656 C 8.117188 23.972656 8.546875 23.65625 8.691406 23.1875 L 9.046875 22.046875 C 9.226562 21.472656 9.433594 20.902344 9.664062 20.34375 C 9.921875 19.714844 10.222656 19.089844 10.550781 18.480469 L 11.117188 17.429688 C 11.351562 17 11.277344 16.464844 10.929688 16.117188 L 7.433594 12.578125 C 8.207031 11.539062 9.066406 10.554688 9.984375 9.644531 C 10.90625 8.734375 11.898438 7.886719 12.949219 7.125 L 16.445312 10.660156 C 16.789062 11.011719 17.320312 11.089844 17.757812 10.863281 L 18.816406 10.304688 C 18.933594 10.242188 19.050781 10.183594 19.160156 10.128906 C 20.210938 9.601562 21.3125 9.164062 22.433594 8.832031 L 23.574219 8.492188 C 24.046875 8.351562 24.371094 7.921875 24.375 7.429688 L 24.398438 2.496094 C 25.664062 2.320312 26.945312 2.234375 28.214844 2.246094 C 28.21875 2.246094 28.222656 2.246094 28.226562 2.246094 C 28.835938 2.246094 29.335938 1.753906 29.34375 1.140625 C 29.347656 0.527344 28.851562 0.0234375 28.238281 0.015625 C 26.652344 0 25.054688 0.125 23.488281 0.378906 C 23.351562 0.398438 23.214844 0.425781 23.085938 0.449219 C 22.558594 0.546875 22.175781 1.003906 22.171875 1.539062 L 22.144531 6.589844 L 21.796875 6.691406 C 20.550781 7.0625 19.324219 7.546875 18.152344 8.136719 C 18.023438 8.199219 17.894531 8.265625 17.769531 8.332031 L 17.449219 8.503906 L 13.871094 4.886719 C 13.492188 4.5 12.890625 4.445312 12.445312 4.75 C 12.402344 4.78125 12.363281 4.808594 12.320312 4.835938 C 12.25 4.882812 12.183594 4.929688 12.117188 4.976562 C 10.800781 5.890625 9.554688 6.925781 8.414062 8.054688 C 7.273438 9.183594 6.222656 10.417969 5.296875 11.71875 C 5.21875 11.832031 5.136719 11.945312 5.058594 12.054688 C 4.753906 12.5 4.804688 13.09375 5.183594 13.476562 L 8.761719 17.097656 L 8.589844 17.414062 C 8.222656 18.09375 7.886719 18.792969 7.601562 19.492188 C 7.34375 20.109375 7.113281 20.746094 6.914062 21.386719 L 6.804688 21.734375 L 1.753906 21.699219 C 1.75 21.699219 1.746094 21.699219 1.746094 21.699219 C 1.207031 21.699219 0.746094 22.085938 0.648438 22.613281 L 0.640625 22.644531 C 0.621094 22.761719 0.597656 22.878906 0.578125 22.996094 C 0.015625 26.179688 0.0117188 29.40625 0.558594 32.585938 C 0.582031 32.722656 0.605469 32.863281 0.636719 33.015625 C 0.738281 33.539062 1.191406 33.914062 1.722656 33.917969 L 6.71875 33.953125 L 6.820312 34.304688 C 7.234375 35.710938 7.792969 37.078125 8.472656 38.363281 L 8.640625 38.6875 L 5.148438 42.140625 C 4.765625 42.519531 4.707031 43.113281 5.007812 43.558594 C 5.082031 43.667969 5.160156 43.777344 5.238281 43.890625 C 6.125 45.144531 7.121094 46.328125 8.199219 47.417969 C 9.378906 48.609375 10.667969 49.699219 12.035156 50.65625 C 12.152344 50.742188 12.269531 50.820312 12.390625 50.902344 C 12.832031 51.199219 13.421875 51.144531 13.796875 50.769531 L 17.234375 47.371094 L 17.554688 47.546875 C 18.882812 48.265625 20.28125 48.847656 21.703125 49.273438 L 22.050781 49.378906 L 22.054688 54.125 C 22.054688 54.667969 22.445312 55.132812 22.980469 55.222656 L 23.109375 55.246094 C 23.195312 55.261719 23.28125 55.273438 23.363281 55.289062 C 24.226562 55.433594 25.386719 55.507812 26.828125 55.507812 C 27.277344 55.507812 27.753906 55.5 28.253906 55.484375 C 28.871094 55.46875 29.355469 54.953125 29.339844 54.339844 C 29.324219 53.722656 28.808594 53.238281 28.195312 53.253906 Z M 28.195312 53.253906 " fill-opacity="1" fill-rule="nonzero"/></g><path fill="#000000" d="M 23.414062 22.453125 C 24.742188 21.277344 26.449219 20.628906 28.222656 20.628906 C 28.222656 20.628906 28.226562 20.628906 28.226562 20.628906 C 28.84375 20.628906 29.34375 20.128906 29.34375 19.511719 C 29.34375 18.898438 28.84375 18.398438 28.226562 18.398438 C 28.226562 18.398438 28.222656 18.398438 28.222656 18.398438 C 25.90625 18.398438 23.671875 19.242188 21.9375 20.78125 C 18.015625 24.25 17.648438 30.257812 21.117188 34.179688 C 22.917969 36.210938 25.507812 37.378906 28.226562 37.382812 C 28.84375 37.382812 29.34375 36.882812 29.34375 36.265625 C 29.34375 35.648438 28.84375 35.148438 28.226562 35.148438 C 26.148438 35.148438 24.164062 34.257812 22.789062 32.699219 C 21.503906 31.246094 20.863281 29.382812 20.980469 27.445312 C 21.097656 25.507812 21.964844 23.734375 23.414062 22.453125 Z M 23.414062 22.453125 " fill-opacity="1" fill-rule="nonzero"/></svg>