<svg xmlns="http://www.w3.org/2000/svg" xmlns:xlink="http://www.w3.org/1999/xlink" width="75" zoomAndPan="magnify" viewBox="0 0 56.25 56.249997" height="75" preserveAspectRatio="xMidYMid meet" version="1.0"><defs><clipPath id="d2980feeac"><path d="M 0 0 L 55.511719 0 L 55.511719 55.511719 L 0 55.511719 Z M 0 0 " clip-rule="nonzero"/></clipPath><clipPath id="1e4deaf0d8"><path d="M 1 2.335938 L 55 2.335938 L 55 42 L 1 42 Z M 1 2.335938 " clip-rule="nonzero"/></clipPath><clipPath id="e9c427c4b0"><path d="M 20 25 L 36 25 L 36 53.40625 L 20 53.40625 Z M 20 25 " clip-rule="nonzero"/></clipPath></defs><g clip-path="url(#d2980feeac)"><path fill="#ffffff" d="M 0 0 L 55.511719 0 L 55.511719 55.511719 L 0 55.511719 Z M 0 0 " fill-opacity="1" fill-rule="nonzero"/><path fill="#ffffff" d="M 0 0 L 55.511719 0 L 55.511719 55.511719 L 0 55.511719 Z M 0 0 " fill-opacity="1" fill-rule="nonzero"/></g><g clip-path="url(#1e4deaf0d8)"><path fill="#ea7100" d="M 49.761719 19.902344 C 49.710938 14.582031 45.703125 10.261719 40.828125 10.261719 C 40.566406 10.265625 40.300781 10.28125 40.039062 10.316406 C 39.371094 9.121094 38.558594 8.03125 37.605469 7.050781 C 36.648438 6.070312 35.585938 5.226562 34.410156 4.523438 C 33.234375 3.824219 31.988281 3.285156 30.671875 2.90625 C 29.355469 2.53125 28.011719 2.332031 26.644531 2.304688 C 19.632812 2.304688 13.667969 7.292969 11.554688 14.214844 C 9.34375 15.019531 3.449219 17.839844 1.597656 24.6875 C 1.089844 26.609375 0.472656 30.390625 2.109375 34.023438 C 4.195312 38.679688 9.292969 41.464844 15.054688 41.464844 C 16.527344 41.464844 17.976562 41.285156 19.40625 40.9375 L 18.707031 38.0625 C 12.6875 39.515625 6.84375 37.320312 4.820312 32.800781 C 4.359375 31.632812 4.101562 30.425781 4.042969 29.171875 C 3.984375 27.917969 4.128906 26.691406 4.476562 25.484375 C 4.949219 23.816406 5.734375 22.316406 6.835938 20.980469 C 7.9375 19.644531 9.261719 18.589844 10.8125 17.808594 C 10.742188 18.453125 10.707031 19.097656 10.707031 19.746094 L 13.683594 19.746094 C 13.683594 11.789062 19.488281 5.320312 26.621094 5.320312 C 27.664062 5.34375 28.691406 5.492188 29.695312 5.769531 C 30.703125 6.046875 31.660156 6.441406 32.570312 6.953125 C 33.480469 7.46875 34.3125 8.085938 35.070312 8.804688 C 35.824219 9.523438 36.484375 10.324219 37.039062 11.207031 C 35.46875 12 34.230469 13.148438 33.320312 14.65625 L 35.855469 16.210938 C 36.367188 15.320312 37.0625 14.617188 37.941406 14.09375 C 38.824219 13.570312 39.777344 13.300781 40.800781 13.277344 C 44.105469 13.277344 46.800781 16.3125 46.800781 20.050781 C 46.796875 20.683594 46.71875 21.304688 46.566406 21.917969 L 47.863281 22.246094 C 48.488281 22.644531 49.054688 23.109375 49.566406 23.648438 C 50.074219 24.1875 50.511719 24.78125 50.871094 25.425781 C 51.234375 26.074219 51.511719 26.753906 51.703125 27.46875 C 51.894531 28.183594 52 28.910156 52.007812 29.652344 C 51.964844 30.871094 51.695312 32.039062 51.199219 33.152344 C 50.707031 34.269531 50.023438 35.253906 49.152344 36.105469 C 48.109375 37.128906 46.890625 37.855469 45.496094 38.285156 C 44.167969 38.742188 42.796875 38.980469 41.394531 38.996094 C 39.988281 39.015625 38.613281 38.816406 37.273438 38.398438 L 36.421875 41.210938 C 38.019531 41.699219 39.652344 41.949219 41.320312 41.957031 C 43.109375 41.964844 44.847656 41.667969 46.53125 41.0625 C 48.339844 40.480469 49.925781 39.523438 51.28125 38.191406 C 52.425781 37.058594 53.324219 35.75 53.964844 34.273438 C 54.609375 32.792969 54.953125 31.25 55 29.636719 C 54.992188 28.675781 54.867188 27.726562 54.625 26.796875 C 54.382812 25.863281 54.035156 24.972656 53.578125 24.125 C 53.125 23.277344 52.574219 22.496094 51.925781 21.78125 C 51.28125 21.066406 50.558594 20.441406 49.761719 19.902344 Z M 49.761719 19.902344 " fill-opacity="1" fill-rule="nonzero"/></g><g clip-path="url(#e9c427c4b0)"><path fill="#ea7100" d="M 32.582031 37.394531 L 32.476562 30.949219 C 32.476562 28.203125 30.410156 25.976562 27.9375 25.976562 C 25.464844 25.976562 23.398438 28.207031 23.398438 31.007812 L 23.398438 37.394531 C 22.957031 37.484375 22.546875 37.644531 22.164062 37.878906 C 21.785156 38.109375 21.449219 38.402344 21.167969 38.746094 C 20.886719 39.09375 20.667969 39.480469 20.519531 39.902344 C 20.367188 40.324219 20.292969 40.757812 20.292969 41.203125 L 20.292969 49.242188 C 20.292969 49.757812 20.390625 50.253906 20.589844 50.730469 C 20.785156 51.207031 21.066406 51.625 21.429688 51.992188 C 21.796875 52.355469 22.214844 52.636719 22.691406 52.832031 C 23.167969 53.03125 23.664062 53.128906 24.179688 53.128906 L 31.816406 53.128906 C 32.332031 53.128906 32.828125 53.03125 33.300781 52.832031 C 33.777344 52.636719 34.199219 52.355469 34.5625 51.992188 C 34.925781 51.625 35.207031 51.207031 35.40625 50.730469 C 35.601562 50.253906 35.699219 49.757812 35.699219 49.242188 L 35.699219 41.183594 C 35.699219 40.734375 35.621094 40.304688 35.464844 39.882812 C 35.3125 39.464844 35.097656 39.082031 34.8125 38.734375 C 34.527344 38.390625 34.195312 38.105469 33.8125 37.875 C 33.429688 37.644531 33.019531 37.484375 32.582031 37.394531 Z M 26.40625 31.039062 C 26.40625 29.929688 27.148438 28.984375 27.96875 28.984375 C 28.785156 28.984375 29.5 29.859375 29.5 30.976562 L 29.574219 37.289062 L 26.375 37.289062 Z M 28.011719 46.699219 C 27.71875 46.710938 27.4375 46.667969 27.164062 46.566406 C 26.890625 46.464844 26.644531 46.316406 26.429688 46.117188 C 26.21875 45.917969 26.050781 45.6875 25.929688 45.421875 C 25.808594 45.15625 25.746094 44.875 25.734375 44.585938 C 25.726562 44.292969 25.773438 44.011719 25.878906 43.738281 C 25.984375 43.464844 26.136719 43.222656 26.339844 43.011719 C 26.539062 42.800781 26.773438 42.636719 27.042969 42.519531 C 27.308594 42.402344 27.589844 42.34375 27.882812 42.339844 C 28.171875 42.335938 28.453125 42.386719 28.726562 42.496094 C 28.996094 42.601562 29.238281 42.761719 29.445312 42.964844 C 29.652344 43.167969 29.8125 43.40625 29.925781 43.675781 C 30.039062 43.945312 30.097656 44.226562 30.097656 44.515625 C 30.101562 44.800781 30.054688 45.074219 29.953125 45.335938 C 29.851562 45.601562 29.703125 45.835938 29.507812 46.039062 C 29.3125 46.246094 29.085938 46.40625 28.824219 46.519531 C 28.566406 46.632812 28.296875 46.691406 28.011719 46.699219 Z M 28.011719 46.699219 " fill-opacity="1" fill-rule="nonzero"/></g></svg>