<svg xmlns="http://www.w3.org/2000/svg" xmlns:xlink="http://www.w3.org/1999/xlink" width="75" zoomAndPan="magnify" viewBox="0 0 56.25 56.249997" height="75" preserveAspectRatio="xMidYMid meet" version="1.0"><defs><clipPath id="01a056a5ef"><path d="M 0.609375 7.992188 L 54.640625 7.992188 L 54.640625 53.140625 L 0.609375 53.140625 Z M 0.609375 7.992188 " clip-rule="nonzero"/></clipPath><clipPath id="e424fa119e"><path d="M 7.03125 13.027344 L 49.957031 13.027344 L 49.957031 38.636719 L 7.03125 38.636719 Z M 7.03125 13.027344 " clip-rule="nonzero"/></clipPath><clipPath id="f0f20116dc"><path d="M 9.105469 13.027344 L 48.332031 13.027344 L 48.332031 38.929688 L 9.105469 38.929688 Z M 9.105469 13.027344 " clip-rule="nonzero"/></clipPath><clipPath id="6b02419d17"><path d="M 14 13.027344 L 42 13.027344 L 42 28 L 14 28 Z M 14 13.027344 " clip-rule="nonzero"/></clipPath></defs><g clip-path="url(#01a056a5ef)"><path fill="#000000" d="M 51.476562 7.992188 L 3.773438 7.992188 C 2.027344 7.992188 0.609375 9.410156 0.609375 11.160156 L 0.609375 43.007812 C 0.609375 44.757812 2.023438 46.175781 3.773438 46.175781 L 19.246094 46.175781 L 19.246094 49.109375 L 18.847656 49.109375 C 16.644531 49.109375 14.855469 50.902344 14.855469 53.109375 L 40.390625 53.109375 C 40.390625 50.902344 38.605469 49.109375 36.398438 49.109375 L 36 49.109375 L 36 46.175781 L 51.472656 46.175781 C 53.21875 46.175781 54.636719 44.761719 54.636719 43.007812 L 54.636719 11.160156 C 54.640625 9.414062 53.226562 7.992188 51.476562 7.992188 Z M 51.921875 39.777344 L 3.328125 39.777344 L 3.328125 10.632812 L 51.921875 10.632812 Z M 51.921875 39.777344 " fill-opacity="1" fill-rule="nonzero"/></g><path fill="#000000" d="M 23.195312 37.808594 L 26.507812 37.808594 L 26.507812 25.800781 C 25.402344 26.28125 24.289062 26.734375 23.195312 27.144531 Z M 23.195312 37.808594 " fill-opacity="1" fill-rule="nonzero"/><path fill="#000000" d="M 28.347656 24.980469 L 28.347656 37.808594 L 31.65625 37.808594 L 31.65625 23.363281 C 31.640625 23.371094 31.621094 23.382812 31.601562 23.390625 C 30.527344 23.945312 29.441406 24.472656 28.347656 24.980469 Z M 28.347656 24.980469 " fill-opacity="1" fill-rule="nonzero"/><path fill="#000000" d="M 18.046875 37.808594 L 21.359375 37.808594 L 21.359375 27.792969 C 20.214844 28.179688 19.101562 28.503906 18.046875 28.761719 Z M 18.046875 37.808594 " fill-opacity="1" fill-rule="nonzero"/><path fill="#000000" d="M 36.808594 20.460938 C 36.484375 20.660156 36.140625 20.867188 35.800781 21.074219 C 35.070312 21.507812 34.300781 21.949219 33.496094 22.386719 L 33.496094 37.804688 L 36.808594 37.804688 Z M 36.808594 20.460938 " fill-opacity="1" fill-rule="nonzero"/><path fill="#000000" d="M 15.65625 27.582031 C 16.082031 27.511719 16.523438 27.425781 16.976562 27.324219 C 16.996094 27.320312 17.011719 27.320312 17.027344 27.316406 C 17.476562 27.214844 17.941406 27.097656 18.410156 26.96875 C 18.4375 26.960938 18.457031 26.957031 18.484375 26.949219 C 18.953125 26.820312 19.429688 26.675781 19.917969 26.523438 C 19.945312 26.511719 19.976562 26.503906 20.007812 26.492188 C 20.488281 26.335938 20.980469 26.171875 21.476562 25.996094 C 21.511719 25.984375 21.542969 25.976562 21.578125 25.960938 C 22.074219 25.785156 22.570312 25.597656 23.070312 25.40625 C 23.105469 25.390625 23.144531 25.375 23.179688 25.363281 C 23.679688 25.167969 24.183594 24.964844 24.683594 24.753906 C 24.722656 24.738281 24.757812 24.726562 24.796875 24.710938 C 25.296875 24.5 25.800781 24.285156 26.300781 24.058594 C 26.339844 24.042969 26.378906 24.027344 26.417969 24.007812 C 26.917969 23.785156 27.414062 23.558594 27.910156 23.324219 C 27.945312 23.308594 27.980469 23.292969 28.015625 23.273438 C 28.511719 23.042969 29 22.804688 29.480469 22.566406 C 29.515625 22.550781 29.550781 22.53125 29.585938 22.515625 C 30.066406 22.277344 30.539062 22.039062 31.003906 21.800781 C 31.039062 21.78125 31.074219 21.761719 31.109375 21.746094 C 31.570312 21.507812 32.019531 21.265625 32.460938 21.027344 C 32.5 21.007812 32.535156 20.988281 32.574219 20.96875 C 33.007812 20.730469 33.429688 20.496094 33.839844 20.265625 C 33.875 20.242188 33.914062 20.21875 33.953125 20.199219 C 34.351562 19.972656 34.742188 19.746094 35.117188 19.519531 C 35.15625 19.492188 35.199219 19.472656 35.238281 19.445312 C 35.601562 19.226562 35.949219 19.011719 36.277344 18.800781 C 36.320312 18.777344 36.363281 18.746094 36.402344 18.722656 C 36.722656 18.515625 37.027344 18.316406 37.316406 18.121094 C 37.335938 18.109375 37.363281 18.089844 37.382812 18.078125 C 37.46875 18.019531 37.558594 17.957031 37.640625 17.902344 L 38.683594 19.179688 L 39.773438 16.296875 L 40.867188 13.410156 L 40.515625 13.46875 L 39.785156 13.585938 L 37.828125 13.902344 L 34.789062 14.398438 L 35.886719 15.742188 C 35.238281 16.296875 34.441406 16.894531 33.558594 17.519531 L 31.585938 18.414062 L 31.4375 18.261719 C 31.253906 18.023438 31.042969 17.824219 30.820312 17.625 L 30.683594 17.492188 L 31.46875 15.34375 L 28.183594 14.125 L 27.460938 16.074219 L 27.230469 16.054688 C 26.863281 16.015625 26.488281 16.015625 26.152344 16.050781 L 25.9375 16.054688 L 25.113281 14.234375 L 21.910156 15.699219 L 22.699219 17.417969 L 22.523438 17.574219 C 22.269531 17.792969 22.023438 18.042969 21.816406 18.316406 C 21.785156 18.363281 21.753906 18.398438 21.714844 18.4375 L 21.578125 18.613281 L 19.820312 17.957031 L 18.597656 21.261719 L 20.402344 21.921875 L 20.402344 22.140625 C 20.386719 22.523438 20.417969 22.902344 20.476562 23.296875 L 20.507812 23.507812 L 18.714844 24.335938 L 19.316406 25.660156 C 18.695312 25.953125 18.082031 26.234375 17.503906 26.492188 C 17.230469 26.609375 16.964844 26.722656 16.707031 26.835938 C 16.683594 26.84375 16.664062 26.855469 16.640625 26.863281 C 16.402344 26.960938 16.171875 27.058594 15.945312 27.148438 C 15.898438 27.167969 15.851562 27.1875 15.804688 27.207031 C 15.597656 27.289062 15.398438 27.367188 15.203125 27.441406 C 15.15625 27.457031 15.113281 27.476562 15.066406 27.492188 C 14.835938 27.582031 14.605469 27.664062 14.386719 27.742188 C 14.785156 27.710938 15.203125 27.65625 15.636719 27.585938 C 15.640625 27.585938 15.644531 27.585938 15.65625 27.582031 Z M 23.128906 21.160156 C 23.316406 20.601562 23.632812 20.085938 24.050781 19.65625 C 24.226562 19.480469 24.421875 19.304688 24.648438 19.15625 C 24.828125 19.019531 25.039062 18.902344 25.253906 18.792969 C 25.703125 18.589844 26.167969 18.476562 26.632812 18.4375 C 27.90625 18.34375 29.167969 18.875 30.007812 19.851562 C 27.847656 21.1875 25.453125 22.542969 23.113281 23.765625 C 22.824219 22.898438 22.851562 21.984375 23.128906 21.160156 Z M 23.128906 21.160156 " fill-opacity="1" fill-rule="nonzero"/><g clip-path="url(#e424fa119e)"><path fill="#ffffff" d="M 7.03125 13.027344 L 49.945312 13.027344 L 49.945312 38.636719 L 7.03125 38.636719 Z M 7.03125 13.027344 " fill-opacity="1" fill-rule="nonzero"/></g><g clip-path="url(#f0f20116dc)"><path fill="#ea7100" d="M 51.71875 7.992188 L 3.789062 7.992188 C 2.035156 7.992188 0.609375 9.414062 0.609375 11.167969 L 0.609375 43.097656 C 0.609375 44.851562 2.03125 46.273438 3.789062 46.273438 L 19.335938 46.273438 L 19.335938 49.214844 L 18.933594 49.214844 C 16.71875 49.214844 14.921875 51.011719 14.921875 53.226562 L 40.578125 53.226562 C 40.578125 51.015625 38.785156 49.214844 36.570312 49.214844 L 36.167969 49.214844 L 36.167969 46.273438 L 51.714844 46.273438 C 53.464844 46.273438 54.890625 44.855469 54.890625 43.097656 L 54.890625 11.167969 C 54.894531 9.417969 53.472656 7.992188 51.71875 7.992188 Z M 52.164062 39.859375 L 3.339844 39.859375 L 3.339844 10.640625 L 52.164062 10.640625 Z M 52.164062 39.859375 " fill-opacity="1" fill-rule="nonzero"/></g><path fill="#ea7100" d="M 23.300781 37.882812 L 26.632812 37.882812 L 26.632812 25.847656 C 25.519531 26.328125 24.402344 26.78125 23.300781 27.191406 Z M 23.300781 37.882812 " fill-opacity="1" fill-rule="nonzero"/><path fill="#ea7100" d="M 28.476562 25.023438 L 28.476562 37.882812 L 31.804688 37.882812 L 31.804688 23.402344 C 31.785156 23.410156 31.765625 23.421875 31.746094 23.429688 C 30.667969 23.988281 29.578125 24.515625 28.476562 25.023438 Z M 28.476562 25.023438 " fill-opacity="1" fill-rule="nonzero"/><path fill="#ea7100" d="M 18.128906 37.882812 L 21.457031 37.882812 L 21.457031 27.84375 C 20.304688 28.230469 19.1875 28.554688 18.128906 28.816406 Z M 18.128906 37.882812 " fill-opacity="1" fill-rule="nonzero"/><path fill="#ea7100" d="M 36.976562 20.492188 C 36.652344 20.695312 36.308594 20.902344 35.964844 21.105469 C 35.234375 21.539062 34.460938 21.984375 33.648438 22.425781 L 33.648438 37.878906 L 36.980469 37.878906 Z M 36.976562 20.492188 " fill-opacity="1" fill-rule="nonzero"/><g clip-path="url(#6b02419d17)"><path fill="#ea7100" d="M 15.726562 27.632812 C 16.15625 27.5625 16.597656 27.476562 17.054688 27.375 C 17.074219 27.371094 17.089844 27.367188 17.105469 27.363281 C 17.554688 27.261719 18.023438 27.144531 18.496094 27.015625 C 18.519531 27.011719 18.542969 27.003906 18.570312 26.996094 C 19.039062 26.867188 19.519531 26.722656 20.007812 26.570312 C 20.039062 26.558594 20.070312 26.550781 20.097656 26.542969 C 20.582031 26.382812 21.078125 26.21875 21.578125 26.042969 C 21.609375 26.03125 21.644531 26.019531 21.675781 26.007812 C 22.171875 25.832031 22.675781 25.644531 23.175781 25.449219 C 23.210938 25.4375 23.25 25.421875 23.285156 25.40625 C 23.789062 25.210938 24.292969 25.007812 24.796875 24.796875 C 24.835938 24.78125 24.871094 24.769531 24.910156 24.753906 C 25.414062 24.542969 25.917969 24.324219 26.421875 24.101562 C 26.460938 24.085938 26.5 24.066406 26.539062 24.050781 C 27.042969 23.828125 27.542969 23.597656 28.039062 23.363281 C 28.074219 23.347656 28.109375 23.332031 28.144531 23.3125 C 28.644531 23.078125 29.132812 22.84375 29.617188 22.605469 C 29.652344 22.589844 29.6875 22.570312 29.722656 22.554688 C 30.203125 22.3125 30.679688 22.074219 31.144531 21.835938 C 31.179688 21.816406 31.214844 21.796875 31.253906 21.78125 C 31.71875 21.539062 32.167969 21.300781 32.613281 21.0625 C 32.648438 21.042969 32.683594 21.019531 32.722656 21 C 33.160156 20.765625 33.582031 20.527344 33.996094 20.296875 C 34.03125 20.273438 34.070312 20.25 34.109375 20.230469 C 34.511719 20 34.902344 19.773438 35.277344 19.546875 C 35.320312 19.523438 35.363281 19.5 35.398438 19.476562 C 35.765625 19.253906 36.113281 19.039062 36.445312 18.828125 C 36.488281 18.804688 36.53125 18.773438 36.570312 18.75 C 36.894531 18.542969 37.199219 18.339844 37.492188 18.144531 C 37.511719 18.132812 37.535156 18.117188 37.554688 18.105469 C 37.640625 18.042969 37.734375 17.984375 37.816406 17.925781 L 38.863281 19.210938 L 39.960938 16.316406 L 41.054688 13.421875 L 40.703125 13.480469 L 39.96875 13.597656 L 38.003906 13.917969 L 34.949219 14.417969 L 36.054688 15.761719 C 35.398438 16.316406 34.601562 16.917969 33.714844 17.542969 L 31.730469 18.441406 L 31.582031 18.285156 C 31.398438 18.050781 31.183594 17.847656 30.964844 17.652344 L 30.824219 17.515625 L 31.613281 15.363281 L 28.3125 14.140625 L 27.585938 16.09375 L 27.355469 16.074219 C 26.984375 16.035156 26.613281 16.035156 26.273438 16.070312 L 26.054688 16.078125 L 25.230469 14.25 L 22.011719 15.71875 L 22.800781 17.445312 L 22.628906 17.601562 C 22.371094 17.816406 22.125 18.070312 21.914062 18.339844 C 21.882812 18.390625 21.855469 18.425781 21.816406 18.464844 L 21.675781 18.640625 L 19.910156 17.984375 L 18.683594 21.292969 L 20.492188 21.957031 L 20.496094 22.175781 C 20.480469 22.558594 20.511719 22.941406 20.570312 23.335938 L 20.601562 23.550781 L 18.800781 24.375 L 19.40625 25.703125 C 18.777344 26 18.167969 26.28125 17.582031 26.539062 C 17.308594 26.65625 17.042969 26.769531 16.785156 26.882812 C 16.761719 26.890625 16.738281 26.902344 16.714844 26.910156 C 16.476562 27.011719 16.246094 27.105469 16.015625 27.199219 C 15.96875 27.21875 15.925781 27.238281 15.875 27.257812 C 15.667969 27.339844 15.46875 27.417969 15.269531 27.492188 C 15.226562 27.507812 15.179688 27.527344 15.136719 27.542969 C 14.902344 27.632812 14.671875 27.714844 14.453125 27.792969 C 14.851562 27.761719 15.273438 27.707031 15.707031 27.636719 C 15.710938 27.636719 15.71875 27.636719 15.726562 27.632812 Z M 23.238281 21.195312 C 23.425781 20.632812 23.742188 20.117188 24.164062 19.683594 C 24.339844 19.511719 24.535156 19.335938 24.761719 19.183594 C 24.941406 19.046875 25.152344 18.929688 25.371094 18.820312 C 25.820312 18.617188 26.285156 18.503906 26.753906 18.464844 C 28.035156 18.371094 29.304688 18.902344 30.148438 19.882812 C 27.976562 21.222656 25.570312 22.578125 23.21875 23.808594 C 22.925781 22.9375 22.957031 22.019531 23.238281 21.195312 Z M 23.238281 21.195312 " fill-opacity="1" fill-rule="nonzero"/></g></svg>