<svg xmlns="http://www.w3.org/2000/svg" xmlns:xlink="http://www.w3.org/1999/xlink" width="75" zoomAndPan="magnify" viewBox="0 0 56.25 56.249997" height="75" preserveAspectRatio="xMidYMid meet" version="1.0"><defs><clipPath id="38cc21bfeb"><path d="M 0 0 L 55.511719 0 L 55.511719 55.511719 L 0 55.511719 Z M 0 0 " clip-rule="nonzero"/></clipPath><clipPath id="c0fb78182c"><path d="M 0.304688 8.140625 L 55.074219 8.140625 L 55.074219 54 L 0.304688 54 Z M 0.304688 8.140625 " clip-rule="nonzero"/></clipPath><clipPath id="a749b0e62e"><path d="M 7.03125 13.027344 L 49.957031 13.027344 L 49.957031 38.636719 L 7.03125 38.636719 Z M 7.03125 13.027344 " clip-rule="nonzero"/></clipPath><clipPath id="1c13db2f60"><path d="M 9.105469 13.027344 L 48.332031 13.027344 L 48.332031 38.929688 L 9.105469 38.929688 Z M 9.105469 13.027344 " clip-rule="nonzero"/></clipPath><clipPath id="9ef9005218"><path d="M 14 13.027344 L 42 13.027344 L 42 28 L 14 28 Z M 14 13.027344 " clip-rule="nonzero"/></clipPath></defs><g clip-path="url(#38cc21bfeb)"><path fill="#ffffff" d="M 0 0 L 55.511719 0 L 55.511719 55.511719 L 0 55.511719 Z M 0 0 " fill-opacity="1" fill-rule="nonzero"/><path fill="#ffffff" d="M 0 0 L 55.511719 0 L 55.511719 55.511719 L 0 55.511719 Z M 0 0 " fill-opacity="1" fill-rule="nonzero"/></g><g clip-path="url(#c0fb78182c)"><path fill="#343f52" d="M 51.988281 8.140625 L 3.519531 8.140625 C 1.746094 8.140625 0.304688 9.574219 0.304688 11.351562 L 0.304688 43.640625 C 0.304688 45.414062 1.742188 46.855469 3.519531 46.855469 L 19.242188 46.855469 L 19.242188 49.828125 L 18.835938 49.828125 C 16.597656 49.828125 14.777344 51.644531 14.777344 53.882812 L 40.726562 53.882812 C 40.726562 51.644531 38.910156 49.828125 36.667969 49.828125 L 36.261719 49.828125 L 36.261719 46.855469 L 51.984375 46.855469 C 53.757812 46.855469 55.199219 45.417969 55.199219 43.640625 L 55.199219 11.351562 C 55.203125 9.578125 53.765625 8.140625 51.988281 8.140625 Z M 52.441406 40.367188 L 3.066406 40.367188 L 3.066406 10.816406 L 52.441406 10.816406 Z M 52.441406 40.367188 " fill-opacity="1" fill-rule="nonzero"/></g><path fill="#343f52" d="M 23.25 38.367188 L 26.621094 38.367188 L 26.621094 26.195312 C 25.496094 26.679688 24.367188 27.140625 23.25 27.554688 Z M 23.25 38.367188 " fill-opacity="1" fill-rule="nonzero"/><path fill="#343f52" d="M 28.488281 25.363281 L 28.488281 38.367188 L 31.851562 38.367188 L 31.851562 23.722656 C 31.832031 23.734375 31.8125 23.742188 31.792969 23.753906 C 30.703125 24.3125 29.601562 24.851562 28.488281 25.363281 Z M 28.488281 25.363281 " fill-opacity="1" fill-rule="nonzero"/><path fill="#343f52" d="M 18.019531 38.367188 L 21.386719 38.367188 L 21.386719 28.214844 C 20.222656 28.605469 19.09375 28.933594 18.019531 29.195312 Z M 18.019531 38.367188 " fill-opacity="1" fill-rule="nonzero"/><path fill="#343f52" d="M 37.082031 20.78125 C 36.753906 20.984375 36.40625 21.195312 36.058594 21.402344 C 35.320312 21.839844 34.539062 22.289062 33.71875 22.734375 L 33.71875 38.363281 L 37.085938 38.363281 Z M 37.082031 20.78125 " fill-opacity="1" fill-rule="nonzero"/><path fill="#343f52" d="M 15.59375 28 C 16.023438 27.929688 16.472656 27.84375 16.9375 27.742188 C 16.953125 27.738281 16.972656 27.734375 16.988281 27.730469 C 17.441406 27.628906 17.914062 27.507812 18.390625 27.378906 C 18.417969 27.371094 18.441406 27.367188 18.464844 27.359375 C 18.941406 27.226562 19.429688 27.082031 19.921875 26.925781 C 19.953125 26.917969 19.984375 26.90625 20.011719 26.898438 C 20.503906 26.738281 21.003906 26.570312 21.507812 26.394531 C 21.539062 26.378906 21.574219 26.371094 21.609375 26.359375 C 22.113281 26.179688 22.617188 25.988281 23.125 25.792969 C 23.160156 25.78125 23.199219 25.765625 23.234375 25.75 C 23.746094 25.554688 24.257812 25.347656 24.765625 25.132812 C 24.804688 25.117188 24.839844 25.105469 24.878906 25.089844 C 25.390625 24.875 25.898438 24.65625 26.410156 24.429688 C 26.449219 24.414062 26.488281 24.394531 26.527344 24.378906 C 27.035156 24.152344 27.539062 23.921875 28.042969 23.683594 C 28.078125 23.667969 28.113281 23.652344 28.152344 23.632812 C 28.65625 23.398438 29.152344 23.15625 29.640625 22.914062 C 29.675781 22.898438 29.710938 22.878906 29.746094 22.863281 C 30.234375 22.621094 30.714844 22.378906 31.1875 22.136719 C 31.222656 22.117188 31.257812 22.097656 31.296875 22.082031 C 31.765625 21.839844 32.21875 21.597656 32.667969 21.355469 C 32.707031 21.335938 32.742188 21.3125 32.78125 21.292969 C 33.222656 21.054688 33.648438 20.816406 34.066406 20.582031 C 34.105469 20.558594 34.144531 20.535156 34.183594 20.515625 C 34.589844 20.285156 34.984375 20.054688 35.363281 19.824219 C 35.40625 19.800781 35.449219 19.777344 35.488281 19.75 C 35.859375 19.527344 36.210938 19.3125 36.546875 19.097656 C 36.589844 19.074219 36.628906 19.042969 36.671875 19.019531 C 37 18.808594 37.308594 18.605469 37.601562 18.40625 C 37.621094 18.394531 37.648438 18.378906 37.667969 18.367188 C 37.753906 18.304688 37.847656 18.242188 37.933594 18.183594 L 38.992188 19.484375 L 40.097656 16.558594 L 41.207031 13.632812 L 40.851562 13.691406 L 40.109375 13.808594 L 38.121094 14.132812 L 35.03125 14.636719 L 36.148438 15.996094 C 35.488281 16.558594 34.679688 17.164062 33.78125 17.796875 L 31.777344 18.703125 L 31.628906 18.550781 C 31.441406 18.3125 31.226562 18.109375 31.003906 17.90625 L 30.859375 17.773438 L 31.65625 15.59375 L 28.320312 14.359375 L 27.585938 16.332031 L 27.351562 16.3125 C 26.976562 16.273438 26.601562 16.273438 26.257812 16.308594 L 26.039062 16.316406 L 25.203125 14.46875 L 21.949219 15.953125 L 22.75 17.699219 L 22.570312 17.855469 C 22.3125 18.074219 22.0625 18.332031 21.851562 18.605469 C 21.816406 18.652344 21.789062 18.6875 21.75 18.730469 L 21.609375 18.910156 L 19.824219 18.242188 L 18.582031 21.59375 L 20.414062 22.261719 L 20.417969 22.484375 C 20.402344 22.871094 20.429688 23.257812 20.492188 23.65625 L 20.523438 23.871094 L 18.703125 24.707031 L 19.3125 26.050781 C 18.679688 26.347656 18.058594 26.636719 17.46875 26.894531 C 17.195312 27.015625 16.921875 27.128906 16.660156 27.242188 C 16.636719 27.253906 16.617188 27.261719 16.59375 27.273438 C 16.351562 27.371094 16.117188 27.46875 15.886719 27.5625 C 15.835938 27.582031 15.792969 27.601562 15.742188 27.621094 C 15.535156 27.703125 15.332031 27.78125 15.128906 27.859375 C 15.085938 27.875 15.039062 27.894531 14.996094 27.910156 C 14.757812 28 14.527344 28.085938 14.304688 28.164062 C 14.707031 28.132812 15.132812 28.078125 15.574219 28.003906 C 15.574219 28.003906 15.582031 28.003906 15.59375 28 Z M 23.1875 21.492188 C 23.378906 20.921875 23.699219 20.398438 24.125 19.964844 C 24.300781 19.785156 24.5 19.609375 24.730469 19.457031 C 24.910156 19.320312 25.125 19.199219 25.34375 19.089844 C 25.800781 18.882812 26.269531 18.769531 26.746094 18.730469 C 28.039062 18.632812 29.324219 19.171875 30.175781 20.164062 C 27.980469 21.519531 25.546875 22.890625 23.167969 24.132812 C 22.875 23.25 22.902344 22.324219 23.1875 21.492188 Z M 23.1875 21.492188 " fill-opacity="1" fill-rule="nonzero"/><g clip-path="url(#a749b0e62e)"><path fill="#ffffff" d="M 7.03125 13.027344 L 49.945312 13.027344 L 49.945312 38.636719 L 7.03125 38.636719 Z M 7.03125 13.027344 " fill-opacity="1" fill-rule="nonzero"/></g><g clip-path="url(#1c13db2f60)"><path fill="#ea7100" d="M 51.71875 7.992188 L 3.789062 7.992188 C 2.035156 7.992188 0.609375 9.414062 0.609375 11.167969 L 0.609375 43.097656 C 0.609375 44.851562 2.03125 46.273438 3.789062 46.273438 L 19.335938 46.273438 L 19.335938 49.214844 L 18.933594 49.214844 C 16.71875 49.214844 14.921875 51.011719 14.921875 53.226562 L 40.578125 53.226562 C 40.578125 51.015625 38.785156 49.214844 36.570312 49.214844 L 36.167969 49.214844 L 36.167969 46.273438 L 51.714844 46.273438 C 53.464844 46.273438 54.890625 44.855469 54.890625 43.097656 L 54.890625 11.167969 C 54.894531 9.417969 53.472656 7.992188 51.71875 7.992188 Z M 52.164062 39.859375 L 3.339844 39.859375 L 3.339844 10.640625 L 52.164062 10.640625 Z M 52.164062 39.859375 " fill-opacity="1" fill-rule="nonzero"/></g><path fill="#ea7100" d="M 23.300781 37.882812 L 26.632812 37.882812 L 26.632812 25.847656 C 25.519531 26.328125 24.402344 26.78125 23.300781 27.191406 Z M 23.300781 37.882812 " fill-opacity="1" fill-rule="nonzero"/><path fill="#ea7100" d="M 28.476562 25.023438 L 28.476562 37.882812 L 31.804688 37.882812 L 31.804688 23.402344 C 31.785156 23.410156 31.765625 23.421875 31.746094 23.429688 C 30.667969 23.988281 29.578125 24.515625 28.476562 25.023438 Z M 28.476562 25.023438 " fill-opacity="1" fill-rule="nonzero"/><path fill="#ea7100" d="M 18.128906 37.882812 L 21.457031 37.882812 L 21.457031 27.84375 C 20.304688 28.230469 19.1875 28.554688 18.128906 28.816406 Z M 18.128906 37.882812 " fill-opacity="1" fill-rule="nonzero"/><path fill="#ea7100" d="M 36.976562 20.492188 C 36.652344 20.695312 36.308594 20.902344 35.964844 21.105469 C 35.234375 21.539062 34.460938 21.984375 33.648438 22.425781 L 33.648438 37.878906 L 36.980469 37.878906 Z M 36.976562 20.492188 " fill-opacity="1" fill-rule="nonzero"/><g clip-path="url(#9ef9005218)"><path fill="#ea7100" d="M 15.726562 27.632812 C 16.15625 27.5625 16.597656 27.476562 17.054688 27.375 C 17.074219 27.371094 17.089844 27.367188 17.105469 27.363281 C 17.554688 27.261719 18.023438 27.144531 18.496094 27.015625 C 18.519531 27.011719 18.542969 27.003906 18.570312 26.996094 C 19.039062 26.867188 19.519531 26.722656 20.007812 26.570312 C 20.039062 26.558594 20.070312 26.550781 20.097656 26.542969 C 20.582031 26.382812 21.078125 26.21875 21.578125 26.042969 C 21.609375 26.03125 21.644531 26.019531 21.675781 26.007812 C 22.171875 25.832031 22.675781 25.644531 23.175781 25.449219 C 23.210938 25.4375 23.25 25.421875 23.285156 25.40625 C 23.789062 25.210938 24.292969 25.007812 24.796875 24.796875 C 24.835938 24.78125 24.871094 24.769531 24.910156 24.753906 C 25.414062 24.542969 25.917969 24.324219 26.421875 24.101562 C 26.460938 24.085938 26.5 24.066406 26.539062 24.050781 C 27.042969 23.828125 27.542969 23.597656 28.039062 23.363281 C 28.074219 23.347656 28.109375 23.332031 28.144531 23.3125 C 28.644531 23.078125 29.132812 22.84375 29.617188 22.605469 C 29.652344 22.589844 29.6875 22.570312 29.722656 22.554688 C 30.203125 22.3125 30.679688 22.074219 31.144531 21.835938 C 31.179688 21.816406 31.214844 21.796875 31.253906 21.78125 C 31.71875 21.539062 32.167969 21.300781 32.613281 21.0625 C 32.648438 21.042969 32.683594 21.019531 32.722656 21 C 33.160156 20.765625 33.582031 20.527344 33.996094 20.296875 C 34.03125 20.273438 34.070312 20.25 34.109375 20.230469 C 34.511719 20 34.902344 19.773438 35.277344 19.546875 C 35.320312 19.523438 35.363281 19.5 35.398438 19.476562 C 35.765625 19.253906 36.113281 19.039062 36.445312 18.828125 C 36.488281 18.804688 36.53125 18.773438 36.570312 18.75 C 36.894531 18.542969 37.199219 18.339844 37.492188 18.144531 C 37.511719 18.132812 37.535156 18.117188 37.554688 18.105469 C 37.640625 18.042969 37.734375 17.984375 37.816406 17.925781 L 38.863281 19.210938 L 39.960938 16.316406 L 41.054688 13.421875 L 40.703125 13.480469 L 39.96875 13.597656 L 38.003906 13.917969 L 34.949219 14.417969 L 36.054688 15.761719 C 35.398438 16.316406 34.601562 16.917969 33.714844 17.542969 L 31.730469 18.441406 L 31.582031 18.285156 C 31.398438 18.050781 31.183594 17.847656 30.964844 17.652344 L 30.824219 17.515625 L 31.613281 15.363281 L 28.3125 14.140625 L 27.585938 16.09375 L 27.355469 16.074219 C 26.984375 16.035156 26.613281 16.035156 26.273438 16.070312 L 26.054688 16.078125 L 25.230469 14.25 L 22.011719 15.71875 L 22.800781 17.445312 L 22.628906 17.601562 C 22.371094 17.816406 22.125 18.070312 21.914062 18.339844 C 21.882812 18.390625 21.855469 18.425781 21.816406 18.464844 L 21.675781 18.640625 L 19.910156 17.984375 L 18.683594 21.292969 L 20.492188 21.957031 L 20.496094 22.175781 C 20.480469 22.558594 20.511719 22.941406 20.570312 23.335938 L 20.601562 23.550781 L 18.800781 24.375 L 19.40625 25.703125 C 18.777344 26 18.167969 26.28125 17.582031 26.539062 C 17.308594 26.65625 17.042969 26.769531 16.785156 26.882812 C 16.761719 26.890625 16.738281 26.902344 16.714844 26.910156 C 16.476562 27.011719 16.246094 27.105469 16.015625 27.199219 C 15.96875 27.21875 15.925781 27.238281 15.875 27.257812 C 15.667969 27.339844 15.46875 27.417969 15.269531 27.492188 C 15.226562 27.507812 15.179688 27.527344 15.136719 27.542969 C 14.902344 27.632812 14.671875 27.714844 14.453125 27.792969 C 14.851562 27.761719 15.273438 27.707031 15.707031 27.636719 C 15.710938 27.636719 15.71875 27.636719 15.726562 27.632812 Z M 23.238281 21.195312 C 23.425781 20.632812 23.742188 20.117188 24.164062 19.683594 C 24.339844 19.511719 24.535156 19.335938 24.761719 19.183594 C 24.941406 19.046875 25.152344 18.929688 25.371094 18.820312 C 25.820312 18.617188 26.285156 18.503906 26.753906 18.464844 C 28.035156 18.371094 29.304688 18.902344 30.148438 19.882812 C 27.976562 21.222656 25.570312 22.578125 23.21875 23.808594 C 22.925781 22.9375 22.957031 22.019531 23.238281 21.195312 Z M 23.238281 21.195312 " fill-opacity="1" fill-rule="nonzero"/></g></svg>