<svg xmlns="http://www.w3.org/2000/svg" xmlns:xlink="http://www.w3.org/1999/xlink" width="75" zoomAndPan="magnify" viewBox="0 0 56.25 56.249997" height="75" preserveAspectRatio="xMidYMid meet" version="1.0"><defs><clipPath id="c2f0e32bf4"><path d="M 0 0 L 55.511719 0 L 55.511719 55.511719 L 0 55.511719 Z M 0 0 " clip-rule="nonzero"/></clipPath><clipPath id="8d0199f1e7"><path d="M 0 46 L 55.511719 46 L 55.511719 55.511719 L 0 55.511719 Z M 0 46 " clip-rule="nonzero"/></clipPath></defs><g clip-path="url(#c2f0e32bf4)"><path fill="#ffffff" d="M 0 0 L 55.511719 0 L 55.511719 55.511719 L 0 55.511719 Z M 0 0 " fill-opacity="1" fill-rule="nonzero"/><path fill="#ffffff" d="M 0 0 L 55.511719 0 L 55.511719 55.511719 L 0 55.511719 Z M 0 0 " fill-opacity="1" fill-rule="nonzero"/></g><path fill="#343f52" d="M 6.9375 47.414062 L 4.625 47.414062 L 4.625 20.816406 C 4.625 19.542969 5.085938 18.503906 6.011719 17.578125 C 6.9375 16.652344 7.976562 16.191406 9.25 16.191406 L 12.722656 16.191406 L 12.722656 18.503906 L 9.25 18.503906 C 8.671875 18.503906 8.09375 18.734375 7.632812 19.199219 C 7.167969 19.660156 6.9375 20.238281 6.9375 20.816406 L 6.9375 47.414062 " fill-opacity="1" fill-rule="nonzero"/><path fill="#343f52" d="M 50.882812 47.414062 L 48.570312 47.414062 L 48.570312 20.816406 C 48.570312 20.355469 48.339844 19.777344 47.878906 19.199219 C 47.414062 18.734375 46.835938 18.503906 46.257812 18.503906 L 42.789062 18.503906 L 42.789062 16.191406 L 46.257812 16.191406 C 47.527344 16.191406 48.570312 16.652344 49.496094 17.578125 C 50.417969 18.386719 50.882812 19.660156 50.882812 20.816406 L 50.882812 47.414062 " fill-opacity="1" fill-rule="nonzero"/><g clip-path="url(#8d0199f1e7)"><path fill="#343f52" d="M 2.3125 48.570312 L 2.3125 50.882812 C 2.3125 51.460938 2.542969 52.039062 3.007812 52.5 C 3.46875 52.964844 4.046875 53.195312 4.625 53.195312 L 50.882812 53.195312 C 51.460938 53.195312 52.039062 52.964844 52.503906 52.5 C 52.964844 52.039062 53.195312 51.34375 53.195312 50.882812 L 53.195312 48.570312 L 36.316406 48.570312 L 34.347656 50.535156 C 34.117188 50.765625 33.886719 50.882812 33.539062 50.882812 L 21.972656 50.882812 C 21.625 50.882812 21.394531 50.765625 21.164062 50.535156 L 19.199219 48.570312 Z M 50.882812 55.511719 L 4.625 55.511719 C 3.351562 55.511719 2.3125 55.042969 1.386719 54.121094 C 0.460938 53.195312 0 52.15625 0 50.882812 L 0 47.414062 C 0 46.71875 0.460938 46.257812 1.15625 46.257812 L 19.660156 46.257812 C 20.007812 46.257812 20.238281 46.375 20.46875 46.605469 L 22.433594 48.570312 L 33.070312 48.570312 L 35.042969 46.605469 C 35.273438 46.375 35.503906 46.257812 35.851562 46.257812 L 54.351562 46.257812 C 55.042969 46.257812 55.511719 46.71875 55.511719 47.414062 L 55.511719 50.882812 C 55.511719 52.039062 55.042969 53.3125 54.121094 54.121094 C 53.195312 55.042969 52.152344 55.511719 50.882812 55.511719 " fill-opacity="1" fill-rule="nonzero"/></g><path fill="#ea7100" d="M 33.539062 28.910156 L 31.222656 28.910156 L 31.222656 27.753906 C 31.222656 24.980469 32.730469 23.476562 33.886719 22.320312 C 36.894531 19.3125 38.164062 16.539062 38.164062 12.722656 C 38.164062 6.9375 33.539062 2.3125 27.753906 2.3125 C 21.972656 2.3125 17.347656 6.9375 17.347656 12.722656 C 17.347656 16.539062 18.621094 19.3125 21.625 22.320312 C 22.78125 23.476562 24.285156 24.980469 24.285156 27.753906 L 24.285156 28.910156 L 21.972656 28.910156 L 21.972656 27.753906 C 21.972656 25.902344 20.933594 24.863281 20.007812 23.9375 C 16.539062 20.46875 15.035156 17.117188 15.035156 12.722656 C 15.035156 5.664062 20.699219 0 27.753906 0 C 34.804688 0 40.476562 5.664062 40.476562 12.722656 C 40.476562 17.117188 38.972656 20.46875 35.503906 23.9375 C 34.582031 24.863281 33.539062 25.902344 33.539062 27.753906 L 33.539062 28.910156 " fill-opacity="1" fill-rule="nonzero"/><path fill="#343f52" d="M 20.816406 27.753906 L 34.695312 27.753906 L 34.695312 30.066406 L 20.816406 30.066406 L 20.816406 27.753906 " fill-opacity="1" fill-rule="nonzero"/><path fill="#343f52" d="M 20.816406 32.378906 L 34.695312 32.378906 L 34.695312 34.695312 L 20.816406 34.695312 L 20.816406 32.378906 " fill-opacity="1" fill-rule="nonzero"/><path fill="#343f52" d="M 31.222656 28.910156 L 33.539062 28.910156 L 33.539062 33.539062 L 31.222656 33.539062 L 31.222656 28.910156 " fill-opacity="1" fill-rule="nonzero"/><path fill="#343f52" d="M 21.972656 28.910156 L 24.285156 28.910156 L 24.285156 33.539062 L 21.972656 33.539062 L 21.972656 28.910156 " fill-opacity="1" fill-rule="nonzero"/><path fill="#343f52" d="M 26.597656 12.722656 L 28.910156 12.722656 L 28.910156 28.910156 L 26.597656 28.910156 L 26.597656 12.722656 " fill-opacity="1" fill-rule="nonzero"/><path fill="#343f52" d="M 23.128906 11.566406 L 32.378906 11.566406 L 32.378906 13.878906 L 23.128906 13.878906 L 23.128906 11.566406 " fill-opacity="1" fill-rule="nonzero"/><path fill="#343f52" d="M 28.910156 39.320312 L 26.597656 39.320312 C 26.019531 39.320312 25.441406 39.089844 24.980469 38.628906 C 24.515625 38.164062 24.285156 37.585938 24.285156 37.007812 L 24.285156 33.539062 L 26.597656 33.539062 L 26.597656 37.007812 L 28.910156 37.007812 L 28.910156 33.539062 L 31.222656 33.539062 L 31.222656 37.007812 C 31.222656 37.585938 30.992188 38.164062 30.53125 38.628906 C 30.066406 39.089844 29.488281 39.320312 28.910156 39.320312 " fill-opacity="1" fill-rule="nonzero"/><path fill="#343f52" d="M 31.222656 41.632812 L 33.539062 41.632812 L 33.539062 43.945312 L 31.222656 43.945312 L 31.222656 41.632812 " fill-opacity="1" fill-rule="nonzero"/><path fill="#343f52" d="M 26.597656 41.632812 L 28.910156 41.632812 L 28.910156 43.945312 L 26.597656 43.945312 L 26.597656 41.632812 " fill-opacity="1" fill-rule="nonzero"/><path fill="#343f52" d="M 21.972656 41.632812 L 24.285156 41.632812 L 24.285156 43.945312 L 21.972656 43.945312 L 21.972656 41.632812 " fill-opacity="1" fill-rule="nonzero"/></svg>